# xmcd
#
# Track frame offsets:
# 150
# 24993
# 73987
# 103607
# 126021
# 147945
# 175903
# 198791
# 226283
# 248299
#
# Disc length: 3610 seconds
#
#
# Revision: 0
# Processed by: cddbd v1.5PL3 Copyright (c) Steve Scherf et al.
# Submitted via: CDLP Version 5 
#
DISCID=7e0e180a
DTITLE=浜田省吾 - Edge Of The Knife
DYEAR=1900
DGENRE=Newage
TTITLE0=Sweet Little Darlin'
TTITLE1=想い出のファイヤーストーム
TTITLE2=恋に落ちたら
TTITLE3=Edge Of The Knife
TTITLE4=１９のままさ
TTITLE5=キャンパスの冬
TTITLE6=愛のかけひき
TTITLE7=途切れた愛の物語
TTITLE8=ラストショー
TTITLE9=遠くへ
EXTD=
EXTT0=
EXTT1=
EXTT2=
EXTT3=
EXTT4=
EXTT5=
EXTT6=
EXTT7=
EXTT8=
EXTT9=
PLAYORDER=
